<svg width="1217.54" height="275" xmlns="http://www.w3.org/2000/svg">

 <g>
  <title>Layer 1</title>
  <g id="a"/>
  <g id="b">
   <path id="svg_1" d="m329.66499,145.62999c-4.49,-2.02 -6.5,-7.3 -4.48,-11.8c2.02,-4.49 7.3,-6.5 11.8,-4.48c4.49,2.02 6.5,7.3 4.48,11.8c-2.02,4.49 -7.3,6.5 -11.8,4.48zm23.97,6.2c-2.05,2.91 -4.64,5.29 -7.58,7.03l1.93,5.74l-8.59,2.89l-1.85,-5.5c-3.38,0.59 -6.9,0.48 -10.34,-0.39l-2.69,5.43l-8.11,-4.03l2.58,-5.2c-2.91,-2.05 -5.28,-4.64 -7.02,-7.58l-5.75,1.94l-2.89,-8.59l5.51,-1.85c-0.59,-3.38 -0.5,-6.9 0.37,-10.34l-5.42,-2.69l4.03,-8.11l5.2,2.58c2.05,-2.91 4.64,-5.28 7.59,-7.02l-1.93,-5.75l8.59,-2.89l1.86,5.52c3.38,-0.58 6.89,-0.49 10.33,0.38l2.7,-5.43l8.11,4.03l-2.58,5.2c2.91,2.05 5.28,4.64 7.02,7.58l5.75,-1.94l2.89,8.59l-5.51,1.85c0.59,3.38 0.5,6.9 -0.37,10.34l5.42,2.69l-4.03,8.11l-5.2,-2.58l-0.02,-0.01zm-28.47,2.1c9.12,4.55 20.09,0.79 24.59,-8.27c4.5,-9.06 0.79,-20.09 -8.27,-24.59c-0.21,-0.11 -0.43,-0.21 -0.64,-0.31c-8.93,-4.02 -19.56,-0.27 -23.95,8.58c-4.5,9.06 -0.79,20.1 8.27,24.6l0,-0.01z"/>
   <g id="svg_2">
    <path id="svg_3" d="m166.26499,167.71999l-35.97,0l-5.14,22.67l-20.86,0l25.24,-105.81l37.49,0l25.24,105.81l-20.86,0l-5.14,-22.67zm-31.74,-19.04l27.36,0l-12.24,-54.11l-2.72,0l-12.39,54.11l-0.01,0z"/>
    <path id="svg_4" d="m205.41499,84.58999l70.74,0l0,19.05l-25.39,0l0,67.72l25.39,0l0,19.04l-70.74,0l0,-19.04l25.39,0l0,-67.73l-25.39,0l0,-19.05l0,0.01z"/>
    <path id="svg_5" d="m386.49499,171.34999l9.98,0l0,-67.72l-9.98,0l0,-19.05l46.4,0c5.04,0 9.5,0.71 13.38,2.12c3.88,1.41 7.15,3.32 9.83,5.74c2.67,2.42 4.69,5.32 6.05,8.69c1.36,3.38 2.04,7.03 2.04,10.96l0,1.81c0,6.05 -1.69,10.88 -5.06,14.51c-3.38,3.63 -7.63,6.15 -12.77,7.56l0,2.72c5.14,1.41 9.4,3.96 12.77,7.63c3.38,3.68 5.06,8.54 5.06,14.59l0,1.81c0,3.93 -0.68,7.58 -2.04,10.96c-1.36,3.38 -3.38,6.3 -6.05,8.77c-2.67,2.47 -5.95,4.41 -9.83,5.82c-3.88,1.41 -8.34,2.12 -13.38,2.12l-46.4,0l0,-19.04zm29.93,-43.53l14.51,0c4.23,0 7.66,-0.88 10.28,-2.65c2.62,-1.76 3.93,-4.76 3.93,-8.99l0,-0.91c0,-4.23 -1.31,-7.23 -3.93,-8.99c-2.62,-1.76 -6.05,-2.65 -10.28,-2.65l-14.51,0l0,24.18l0,0.01zm0,43.53l14.51,0c4.23,0 7.66,-0.91 10.28,-2.72c2.62,-1.81 3.93,-4.84 3.93,-9.07l0,-0.91c0,-4.23 -1.31,-7.25 -3.93,-9.07c-2.62,-1.81 -6.05,-2.72 -10.28,-2.72l-14.51,0l0,24.49z"/>
    <path id="svg_6" d="m556.39499,84.58999l0,69.23c0,12.09 -3.2,21.57 -9.6,28.42c-6.4,6.85 -15.9,10.28 -28.49,10.28s-22.1,-3.42 -28.49,-10.28c-6.4,-6.85 -9.6,-16.32 -9.6,-28.42l0,-69.23l19.95,0l0,69.23c0,6.25 1.46,11.14 4.38,14.66c2.92,3.53 7.5,5.29 13.75,5.29s10.83,-1.76 13.75,-5.29c2.92,-3.53 4.38,-8.41 4.38,-14.66l0,-69.23l19.95,0l0.02,0z"/>
    <path id="svg_7" d="m628.94499,116.93999c0,-4.23 -1.64,-7.91 -4.91,-11.04c-3.28,-3.12 -7.89,-4.69 -13.83,-4.69c-5.04,0 -9.02,1.03 -11.94,3.1c-2.92,2.07 -4.38,4.86 -4.38,8.39c0,1.81 0.35,3.45 1.06,4.91c0.7,1.46 1.94,2.77 3.7,3.93c1.76,1.16 4.08,2.19 6.95,3.1c2.87,0.91 6.52,1.77 10.96,2.57c11.08,2.02 19.55,5.39 25.39,10.13c5.84,4.74 8.77,11.74 8.77,21.01l0,1.81c0,4.94 -0.88,9.4 -2.65,13.38c-1.76,3.98 -4.31,7.38 -7.63,10.2c-3.32,2.82 -7.36,4.99 -12.09,6.5c-4.74,1.51 -10.08,2.27 -16.02,2.27c-6.95,0 -13.07,-0.98 -18.37,-2.95c-5.29,-1.96 -9.7,-4.69 -13.23,-8.16c-3.53,-3.48 -6.2,-7.56 -8.01,-12.24c-1.81,-4.69 -2.72,-9.8 -2.72,-15.34l0,-4.53l19.95,0l0,3.63c0,6.35 1.84,11.41 5.52,15.19c3.68,3.78 9.4,5.67 17.16,5.67c6.05,0 10.53,-1.31 13.45,-3.93c2.92,-2.62 4.38,-5.74 4.38,-9.37c0,-1.71 -0.3,-3.35 -0.91,-4.91c-0.6,-1.56 -1.66,-2.97 -3.17,-4.23c-1.51,-1.26 -3.58,-2.39 -6.2,-3.4c-2.62,-1.01 -5.95,-1.86 -9.98,-2.57c-5.34,-0.91 -10.23,-2.09 -14.66,-3.55c-4.44,-1.46 -8.29,-3.4 -11.56,-5.82c-3.28,-2.42 -5.82,-5.44 -7.63,-9.07s-2.72,-8.06 -2.72,-13.3l0,-0.91c0,-4.33 0.88,-8.34 2.65,-12.02c1.76,-3.68 4.23,-6.88 7.41,-9.6c3.18,-2.72 7,-4.84 11.49,-6.35c4.48,-1.51 9.5,-2.27 15.04,-2.27c6.25,0 11.79,0.88 16.63,2.65c4.84,1.76 8.89,4.16 12.17,7.18c3.27,3.02 5.74,6.5 7.41,10.43c1.66,3.93 2.49,8.06 2.49,12.39l0,5.44l-19.95,0l0,-3.63l-0.02,0z"/>
    <path id="svg_8" d="m667.94499,84.58999l70.74,0l0,19.05l-25.39,0l0,67.72l25.39,0l0,19.04l-70.74,0l0,-19.04l25.39,0l0,-67.73l-25.39,0l0,-19.05l0,0.01z"/>
    <path id="svg_9" d="m810.17499,180.41999l2.72,0l0,-95.83l19.95,0l0,105.81l-39,0l-12.39,-95.83l-2.72,0l0,95.83l-19.95,0l0,-105.81l39,0l12.4,95.83l-0.01,0z"/>
    <path id="svg_10" d="m854.46499,84.58999l66.81,0l0,19.05l-46.86,0l0,24.18l45.04,0l0,19.04l-45.04,0l0,24.49l48.67,0l0,19.04l-68.62,0l0,-105.8z"/>
    <path id="svg_11" d="m998.97499,116.93999c0,-4.23 -1.64,-7.91 -4.91,-11.04c-3.28,-3.12 -7.89,-4.69 -13.83,-4.69c-5.04,0 -9.02,1.03 -11.94,3.1c-2.92,2.07 -4.38,4.86 -4.38,8.39c0,1.81 0.35,3.45 1.06,4.91c0.7,1.46 1.94,2.77 3.7,3.93c1.76,1.16 4.08,2.19 6.95,3.1c2.87,0.91 6.52,1.77 10.96,2.57c11.08,2.02 19.55,5.39 25.39,10.13c5.84,4.74 8.77,11.74 8.77,21.01l0,1.81c0,4.94 -0.88,9.4 -2.65,13.38c-1.76,3.98 -4.31,7.38 -7.63,10.2c-3.32,2.82 -7.36,4.99 -12.09,6.5c-4.74,1.51 -10.08,2.27 -16.02,2.27c-6.95,0 -13.07,-0.98 -18.37,-2.95c-5.29,-1.96 -9.7,-4.69 -13.23,-8.16c-3.53,-3.48 -6.2,-7.56 -8.01,-12.24c-1.81,-4.69 -2.72,-9.8 -2.72,-15.34l0,-4.53l19.95,0l0,3.63c0,6.35 1.84,11.41 5.52,15.19c3.68,3.78 9.4,5.67 17.16,5.67c6.05,0 10.53,-1.31 13.45,-3.93c2.92,-2.62 4.38,-5.74 4.38,-9.37c0,-1.71 -0.3,-3.35 -0.91,-4.91c-0.6,-1.56 -1.66,-2.97 -3.17,-4.23c-1.51,-1.26 -3.58,-2.39 -6.2,-3.4c-2.62,-1.01 -5.95,-1.86 -9.98,-2.57c-5.34,-0.91 -10.23,-2.09 -14.66,-3.55c-4.44,-1.46 -8.29,-3.4 -11.56,-5.82c-3.28,-2.42 -5.82,-5.44 -7.63,-9.07s-2.72,-8.06 -2.72,-13.3l0,-0.91c0,-4.33 0.88,-8.34 2.65,-12.02c1.76,-3.68 4.23,-6.88 7.41,-9.6c3.18,-2.72 7,-4.84 11.49,-6.35c4.48,-1.51 9.5,-2.27 15.04,-2.27c6.25,0 11.79,0.88 16.63,2.65c4.84,1.76 8.89,4.16 12.17,7.18c3.27,3.02 5.74,6.5 7.41,10.43c1.66,3.93 2.49,8.06 2.49,12.39l0,5.44l-19.95,0l0,-3.63l-0.02,0z"/>
    <path id="svg_12" d="m1091.47499,116.93999c0,-4.23 -1.64,-7.91 -4.91,-11.04c-3.28,-3.12 -7.89,-4.69 -13.83,-4.69c-5.04,0 -9.02,1.03 -11.94,3.1c-2.92,2.07 -4.38,4.86 -4.38,8.39c0,1.81 0.35,3.45 1.06,4.91c0.7,1.46 1.94,2.77 3.7,3.93c1.76,1.16 4.08,2.19 6.95,3.1c2.87,0.91 6.52,1.77 10.96,2.57c11.08,2.02 19.55,5.39 25.39,10.13c5.84,4.74 8.77,11.74 8.77,21.01l0,1.81c0,4.94 -0.88,9.4 -2.65,13.38c-1.76,3.98 -4.31,7.38 -7.63,10.2c-3.32,2.82 -7.36,4.99 -12.09,6.5c-4.74,1.51 -10.08,2.27 -16.02,2.27c-6.95,0 -13.07,-0.98 -18.37,-2.95c-5.29,-1.96 -9.7,-4.69 -13.23,-8.16c-3.53,-3.48 -6.2,-7.56 -8.01,-12.24c-1.81,-4.69 -2.72,-9.8 -2.72,-15.34l0,-4.53l19.95,0l0,3.63c0,6.35 1.84,11.41 5.52,15.19c3.68,3.78 9.4,5.67 17.16,5.67c6.05,0 10.53,-1.31 13.45,-3.93c2.92,-2.62 4.38,-5.74 4.38,-9.37c0,-1.71 -0.3,-3.35 -0.91,-4.91c-0.6,-1.56 -1.66,-2.97 -3.17,-4.23c-1.51,-1.26 -3.58,-2.39 -6.2,-3.4c-2.62,-1.01 -5.95,-1.86 -9.98,-2.57c-5.34,-0.91 -10.23,-2.09 -14.66,-3.55c-4.44,-1.46 -8.29,-3.4 -11.56,-5.82c-3.28,-2.42 -5.82,-5.44 -7.63,-9.07s-2.72,-8.06 -2.72,-13.3l0,-0.91c0,-4.33 0.88,-8.34 2.65,-12.02c1.76,-3.68 4.23,-6.88 7.41,-9.6c3.18,-2.72 7,-4.84 11.49,-6.35c4.48,-1.51 9.5,-2.27 15.04,-2.27c6.25,0 11.79,0.88 16.63,2.65c4.84,1.76 8.89,4.16 12.17,7.18c3.27,3.02 5.74,6.5 7.41,10.43c1.66,3.93 2.49,8.06 2.49,12.39l0,5.44l-19.95,0l0,-3.63l-0.02,0z"/>
   </g>
  </g>
  <g id="c"/>
 </g>
</svg>