<?xml version="1.0" encoding="utf-8"?>
<!-- Generator: Adobe Illustrator 18.0.0, SVG Export Plug-In . SVG Version: 6.00 Build 0)  -->
<!DOCTYPE svg PUBLIC "-//W3C//DTD SVG 1.1//EN" "http://www.w3.org/Graphics/SVG/1.1/DTD/svg11.dtd">
<svg version="1.1" id="Layer_1" xmlns="http://www.w3.org/2000/svg" xmlns:xlink="http://www.w3.org/1999/xlink" x="0px" y="0px"
	 viewBox="0 0 612 110.8" enable-background="new 0 0 612 110.8" xml:space="preserve">
<g>
	<g>
		<path fill="#FFFFFF" d="M86.9,59.5c-0.9,2.3-2.5,4.8-2.5,4.8c-1,1.5-2,2.9-3.1,4.2c1.9-0.1,8.6-0.9,13-11L86.9,59.5z"/>
		<path fill="#FFFFFF" d="M55.4,0C24.8,0,0,24.8,0,55.4s24.8,55.4,55.4,55.4c30.6,0,55.4-24.8,55.4-55.4S86,0,55.4,0z M61.8,32.8
			c-6.7,8.6-6.2,14-6.2,14C45.1,40.1,61.8,32.8,61.8,32.8z M75.1,49.3L74,52H38.2L37,49.3H75.1z M73.4,53.5l-1.2,2.7H39.9l-1.1-2.7
			H73.4z M20,37.1c6.6,15.8,0.1,15.5,0.1,15.5C13.1,52.4,20,37.1,20,37.1z M78.8,70.8c-5.9,5.8-14.1,9.3-23,9.3
			c-12.8,0-23.9-7.3-29.5-17.9H16.2l-2-4.7h1.9V56h8.1v1.5c0,0,49.5,0,60.8,0L97.5,54C97.5,54,93.8,72,78.8,70.8z"/>
	</g>
	<polygon fill="#FFFFFF" points="138.8,50.6 138.8,19.2 127.7,19.2 127.7,15.7 154.9,15.7 154.9,19.2 143.7,19.2 143.7,50.6 	"/>
	<path fill="#FFFFFF" d="M165.7,47.9c-1.7,1.7-3.9,3.3-6.2,3.3c-4.2,0-7.1-3-7.1-7.7c0-4.3,3.7-7.1,8.9-8.6l6-1.9c-0.2-3-2.5-5-5-5
		c-2.9,0-4.7,1.2-6.5,2.7l-1.7-2.2c2.5-2.4,5-3.4,8.5-3.4c3.7,0,9.2,1.2,9.2,8.5v11c0,1.9,0.2,4.3,1.1,6.1H168
		c-0.6-1-0.7-2.6-0.7-4.2L165.7,47.9L165.7,47.9z M163,37.3c-3.9,1.2-6,3.1-6,6.2c0,2.6,1.8,4.2,3.6,4.2c3.2,0,7.3-3.9,6.7-11.7
		L163,37.3L163,37.3z"/>
	<path fill="#FFFFFF" d="M180.2,25.2c2.5,6.3,5.1,12.7,7.6,20.2h0.1c2.6-7.5,5.2-13.9,7.8-20.2l3.9,0.9L186.8,55
		c-2.3,5.3-5.4,8.1-9.7,8.1h-2.2v-3.2h1.7c3.1,0,5.3-0.8,8.8-10.7l-9.8-22.8L180.2,25.2L180.2,25.2z"/>
	<polygon fill="#FFFFFF" points="203.7,50.6 203.7,14 208.1,14 208.1,50.6 	"/>
	<path fill="#FFFFFF" d="M213.8,37.9c0-8.1,6-12.8,12.3-12.8s12.3,4.7,12.3,12.8c0,7.7-4.9,13.4-12.3,13.4
		C218.8,51.2,213.8,45.6,213.8,37.9L213.8,37.9z M218.7,37.9c0,4.7,1.6,10.2,7.4,10.2c5.9,0,7.5-5.5,7.5-10.2c0-4.5-1.8-9.6-7.5-9.6
		C220.5,28.3,218.7,33.4,218.7,37.9L218.7,37.9z"/>
	<path fill="#FFFFFF" d="M248.5,28.8l1.8-1.9c1-1,2.7-1.8,3.7-1.8c1.1,0,2.7,0.8,4.1,2.4l-2,2.9c-1.1-0.5-2.2-1-3.3-1
		c-2.3,0-4.2,2.3-4.2,7.8v13.4h-4.5V25.7h4.4V28.8L248.5,28.8z"/>
	<polygon fill="#FFFFFF" points="332.5,19.2 320.1,19.2 320.1,32.5 332.3,32.5 332.3,36 320.1,36 320.1,50.6 315.3,50.6 315.3,15.7 
		332.5,15.7 	"/>
	<path fill="#FFFFFF" d="M343.2,28.8l1.8-1.9c1.1-1,2.7-1.8,3.7-1.8c1.1,0,2.7,0.8,4.1,2.4l-2,2.9c-1.1-0.5-2.2-1-3.3-1
		c-2.3,0-4.2,2.3-4.2,7.8v13.4h-4.5V25.7h4.4V28.8L343.2,28.8z"/>
	<path fill="#FFFFFF" d="M367.8,47.9c-1.7,1.7-3.9,3.3-6.2,3.3c-4.2,0-7.1-3-7.1-7.7c0-4.3,3.7-7.1,8.9-8.6l6-1.9c-0.2-3-2.5-5-5-5
		c-2.9,0-4.7,1.2-6.5,2.7l-1.7-2.2c2.5-2.4,5-3.4,8.5-3.4c3.7,0,9.2,1.2,9.2,8.5v11c0,1.9,0.2,4.3,1.1,6.1h-4.9
		c-0.6-1-0.7-2.6-0.7-4.2L367.8,47.9L367.8,47.9z M365.1,37.3c-3.9,1.2-6,3.1-6,6.2c0,2.6,1.8,4.2,3.6,4.2c3.2,0,7.3-3.9,6.7-11.7
		L365.1,37.3L365.1,37.3z"/>
	<path fill="#FFFFFF" d="M385.5,28.8c2.3-2.5,5.9-3.7,8.5-3.7c5.7,0,8.8,3.2,8.8,9.5v16.1h-4.5V35.6c0-4.7-2-7.1-6-7.1
		c-3.5,0-6.8,2.4-6.8,7.2v15H381V25.8h4.4L385.5,28.8L385.5,28.8z"/>
	<path fill="#FFFFFF" d="M429.4,48.6c-2.4,1.7-5.4,2.6-7.5,2.6c-11.8,0-13.3-9.7-13.3-13.1c0-6.2,4.1-13,13.5-13
		c2.5,0,4.8,0.6,6.7,2l-1.5,2.5c-1.4-0.7-3.3-1.3-5.1-1.3c-4.1,0-8.7,2.7-8.7,9.5c0,5.2,2.6,10.1,8.7,10.1c2.1,0,4.1-0.5,6.1-1.8
		L429.4,48.6L429.4,48.6z"/>
	<path fill="#FFFFFF" d="M433.6,17.5c0-1.2,1-2.6,2.8-2.6s2.8,1.4,2.8,2.6c0,1.3-0.6,3-2.8,3C434.3,20.5,433.6,18.8,433.6,17.5
		L433.6,17.5z M438.7,25.7v24.9h-4.5V25.7H438.7L438.7,25.7z"/>
	<path fill="#FFFFFF" d="M457.8,29.7c-1.8-1.2-3.2-1.6-4.6-1.6c-1.6,0-3.6,0.8-3.6,2.8c0,2.1,2.3,3.1,5.1,5.3c3.2,2.4,5.3,4.5,5.3,8
		c0,4.2-4.1,7-8.7,7c-2.8,0-6-1.2-7.7-3.1l2.2-2.5c1.4,1.3,3.4,2.5,5.4,2.5c2.1,0,4.2-1.1,4.2-3.5c0-2.9-2.6-4.1-4.9-5.8
		c-2.8-2-5.3-3.7-5.3-7.1c0-3.9,3.9-6.4,8.3-6.4c2.4,0,4.8,1,6.1,2.3L457.8,29.7L457.8,29.7z"/>
	<path fill="#FFFFFF" d="M506.3,34.7v14.2c-3.4,1.2-7.6,2.3-12.1,2.3c-12.4,0-18.8-8.6-18.8-18.1c0-8.8,6.9-17.9,19.4-17.9
		c5.1,0,9.1,1.6,11.2,3.4l-2,2.9c-2.1-1.4-5.3-2.8-9.1-2.8c-9.1,0-14.2,6.2-14.2,14.4c0,8.8,6,14.8,13.6,14.8c2.9,0,5.1-0.3,7.1-1.2
		V34.9h4.9L506.3,34.7L506.3,34.7z"/>
	<path fill="#FFFFFF" d="M517.9,28.8l1.8-1.9c1-1,2.7-1.8,3.7-1.8c1.1,0,2.7,0.8,4.1,2.4l-2,2.9c-1.1-0.5-2.2-1-3.3-1
		c-2.3,0-4.2,2.3-4.2,7.8v13.4h-4.5V25.7h4.4V28.8L517.9,28.8z"/>
	<path fill="#FFFFFF" d="M529.2,37.9c0-8.1,6-12.8,12.3-12.8c6.3,0,12.3,4.7,12.3,12.8c0,7.7-4.9,13.4-12.3,13.4
		C534.1,51.2,529.2,45.6,529.2,37.9L529.2,37.9z M534,37.9c0,4.7,1.6,10.2,7.4,10.2c5.9,0,7.5-5.5,7.5-10.2c0-4.5-1.8-9.6-7.5-9.6
		C535.9,28.3,534,33.4,534,37.9L534,37.9z"/>
	<path fill="#FFFFFF" d="M576.1,47.7c-2.5,2.2-4.8,3.5-8,3.5c-5.7,0-8.8-3.2-8.8-9.5v-16h4.5v15.1c0,4.7,2,7.2,6,7.2
		c3.4,0,6.3-2.8,6.3-7.7V25.7h4.5v24.9h-4.4L576.1,47.7L576.1,47.7z"/>
	<path fill="#FFFFFF" d="M592.4,29.6h0.1c1.8-3,5.4-4.5,8.2-4.5c9.7,0,11.3,8.7,11.3,12.3c0,7.6-4.5,13.8-11.8,13.8
		c-3.1,0-5.8-1.5-7.7-3.9h-0.1v15.8h-4.5V25.7h4.5V29.6L592.4,29.6z M607.2,37.5c0-4.5-2.3-9.2-6.9-9.2c-5.1,0-7.8,3.9-7.8,10.4
		c0,4.8,2.2,9.4,7.8,9.4C605.6,48,607.2,42,607.2,37.5L607.2,37.5z"/>
	<path fill="#FFFFFF" d="M296.3,42.5c1.7-3.3,1.9-7,1.3-10h-3.9c0.8,2.6,0.9,5.6-0.1,7.6l-11.2-10.4c-3.4-3.1-4.7-5-4.7-7
		c0-2.2,1.6-4,4.9-4c2.1,0,4.1,1.1,4.9,1.7l1.7-2.8c-2.2-1.6-4.5-2.4-7.1-2.4c-5.6,0-9.3,3.7-9.3,7.8c0,3.6,2.6,6,4.5,7.8
		c-4.1,1.9-7.5,5.5-7.5,10.1c0,2.1,1.5,10.4,12.4,10.4c4.8,0,8.8-2.2,11.5-5.2l5.7,5.2l4.4-2.2L296.3,42.5z M282.9,47.9
		c-5.3,0-7.8-4.4-7.8-7.6c0-2.9,1.3-5.5,4.5-7.2l11.8,10.6C289.9,45.7,286.7,47.9,282.9,47.9z"/>
	<path fill="#FFFFFF" d="M147.5,96.5c-1.3,0-1.8-1.2-1.6-2.3c-1.4,1.9-2.8,2.5-5.1,2.5c-2.5,0-4.5-2-4.5-4.5c0-5.1,5.5-6.3,9.5-6.5
		v-1c0-2-1.1-3.7-3.2-3.7c-1.3,0-3.1,0.5-4.3,0.9v-1.2c1.4-0.9,3.3-1.6,5-1.6c3,0,5.1,2.1,5.1,5v7.8c0,0.5,0,2.4,0.3,2.8
		c0.2,0.3,0.6,0.2,1,0.2v1.2C148.8,96.4,148.2,96.5,147.5,96.5z M145.8,87.5c-2.4,0-7,0.7-7,4c0,2,0.9,3.2,3,3.2c3.4,0,4-3,4-5.8
		V87.5z"/>
	<path fill="#FFFFFF" d="M164.2,96.3V85.4c0-2.4-0.6-4.1-3.4-4.1c-1.6,0-3.6,0.7-5,1.7v13.3h-2.5V79.7h2.5V81c1.6-0.8,4.2-1.8,6-1.8
		c3.9,0,4.9,2.9,4.9,6.3v10.8H164.2L164.2,96.3z"/>
	<path fill="#FFFFFF" d="M180.1,77.6c-1.3,0-2.3-1-2.3-2.3s1.1-2.3,2.3-2.3c1.3,0,2.3,1,2.3,2.3C182.4,76.5,181.4,77.6,180.1,77.6z
		 M177.9,96.3V79.7h4.4v16.6H177.9z"/>
	<path fill="#FFFFFF" d="M197.3,96.3V86.2c0-1.8-0.2-3.8-2.5-3.8c-1.3,0-2.9,0.5-4,1.2v12.7h-4.4V79.7h4.4v1.7
		c1.5-1.1,3.9-2.2,5.8-2.2c3.5,0,5.1,2.6,5.1,5.9v11.3L197.3,96.3L197.3,96.3z"/>
	<path fill="#FFFFFF" d="M213.8,76.1c-2.4,0-2.9,1.4-2.9,3.5h4.6v2.6h-4.6v14h-4.4v-14h-2.7v-2.6h2.7c0-3.6,1.6-6.2,5.5-6.2
		c1.3,0,2.6,0.4,3.8,1v1.8C215.1,76.2,214.4,76.1,213.8,76.1z"/>
	<path fill="#FFFFFF" d="M225.2,96.7c-5.6,0-8.6-3.4-8.6-8.9c0-5.6,3-8.7,8.6-8.7c5.5,0,8.6,3.2,8.6,8.7
		C233.9,93.4,230.9,96.7,225.2,96.7z M225.2,82.1c-3.2,0-4.3,3-4.3,5.8c0,2.7,1,6.1,4.3,6.1c3.3,0,4.3-3.3,4.3-6.1
		C229.5,85.2,228.4,82.1,225.2,82.1z"/>
	<path fill="#FFFFFF" d="M245.1,82.6c-1.4,0-3,0.9-3.9,1.9v11.8h-4.4V79.7h4.4v2.2c0.8-1.6,3.5-2.7,5.2-2.7c0.2,0,0.4,0,0.6,0v3.9
		C246.5,82.7,245.6,82.6,245.1,82.6z"/>
	<path fill="#FFFFFF" d="M270.4,96.3V86.2c0-1.9-0.4-3.8-2.6-3.8c-1.2,0-2.4,0.5-3.4,1.2c0.1,0.4,0.1,0.9,0.1,1.4v11.3H260V86.2
		c0-1.8-0.2-3.8-2.5-3.8c-1.1,0-2.5,0.5-3.4,1.2v12.7h-4.4V79.7h4.4v1.7c1.4-1.1,3.7-2.2,5.4-2.2c1.9,0,3.4,0.8,4.2,2.5
		c1.6-1.1,4-2.5,6-2.5c3.6,0,5.1,2.6,5.1,5.9v11.3L270.4,96.3L270.4,96.3z"/>
	<path fill="#FFFFFF" d="M289.5,96.5c-1.7,0-1.6-1.5-1.8-2.6c-1.2,1.6-3.4,2.9-5.4,2.9c-2.7,0-5.1-1.8-5.1-4.7c0-5.4,6-6.1,10.2-6.2
		v-1c0-1.9-1.6-2.8-3.3-2.8s-3.4,0.2-5,0.8V81c1.8-1.1,3.8-1.8,5.9-1.8c3.3,0,6.7,1.4,6.7,5.2v6.4c0,0.6-0.1,3.6,0.4,4
		c0.2,0.1,0.5,0.1,0.7,0.1v1.5C291.7,96.3,290.6,96.5,289.5,96.5z M281.5,91.4c0,1.5,1,2.5,2.4,2.5c1.9,0,3.5-1.6,3.5-3.4v-2.4
		C285.5,88.2,281.5,88.9,281.5,91.4z"/>
	<path fill="#FFFFFF" d="M310.4,96.7c-1.4,0-3.5-0.7-4.9-1.2v0.8H303V73.2h2.5v9c1.2-1.8,3.2-3,5.4-3c4.7,0,6.5,4.3,6.5,8.4
		C317.4,91.9,315.4,96.7,310.4,96.7z M310.4,81.4c-2.4,0-4.8,1.7-4.8,4.3v8.2c1.3,0.5,3.2,0.9,4.6,0.9c3.6,0,4.7-3.9,4.7-6.8
		C314.9,84.9,314,81.4,310.4,81.4z"/>
	<path fill="#FFFFFF" d="M332,96.3v-1.7c-1.6,0.9-4.2,2.1-6,2.1c-3.9,0-4.9-2.9-4.9-6.3V79.6h2.5v10.9c0,2.4,0.6,4.1,3.4,4.1
		c1.7,0,3.7-0.9,5-2v-13h2.5v16.6H332V96.3z"/>
	<path fill="#FFFFFF" d="M344,96.7c-1.7,0-3.8-0.8-5.3-1.7v-1.9c1.4,0.8,3.6,1.8,5.2,1.8c1.8,0,3.4-1,3.4-2.9c0-3.8-8.8-2.1-8.8-8
		c0-3.1,2.7-4.8,5.6-4.8c1.7,0,3.1,0.5,4.5,1.3V82c-1.8-0.7-3.3-0.9-4.6-0.9c-1.7,0-3.2,0.9-3.2,2.7c0,3.5,8.9,2.2,8.9,7.9
		C349.8,94.9,346.9,96.7,344,96.7z"/>
	<path fill="#FFFFFF" d="M354.9,76.7c-0.8,0-1.6-0.6-1.6-1.4c0-0.8,0.6-1.6,1.5-1.6c0.8,0,1.6,0.6,1.6,1.5
		C356.4,76,355.8,76.7,354.9,76.7z M353.5,96.3V79.7h2.5v16.6H353.5z"/>
	<path fill="#FFFFFF" d="M372.1,96.3V85.4c0-2.4-0.6-4.1-3.4-4.1c-1.6,0-3.6,0.7-5,1.7v13.3h-2.5V79.7h2.5V81c1.6-0.8,4.2-1.8,6-1.8
		c3.9,0,4.9,2.9,4.9,6.3v10.8H372.1L372.1,96.3z"/>
	<path fill="#FFFFFF" d="M380.7,88.3c0,3.4,1.8,6.4,5.5,6.4c1.7,0,3.5-0.3,5.1-0.8v1.8c-1.7,0.7-3.6,1-5.4,1c-5.3,0-7.7-3.5-7.7-8.6
		c0-4.8,2.3-8.8,7.5-8.8c4.5,0,6.4,3.8,6.4,7.8v1.2L380.7,88.3L380.7,88.3z M385.5,81c-2.9,0-4.8,3.1-4.8,5.7h9.1
		C389.8,84.2,388.5,81,385.5,81z"/>
	<path fill="#FFFFFF" d="M400.3,96.7c-1.7,0-3.8-0.8-5.3-1.7v-1.9c1.4,0.8,3.6,1.8,5.2,1.8c1.8,0,3.4-1,3.4-2.9c0-3.8-8.8-2.1-8.8-8
		c0-3.1,2.7-4.8,5.6-4.8c1.7,0,3.1,0.5,4.5,1.3V82c-1.8-0.7-3.3-0.9-4.6-0.9c-1.7,0-3.2,0.9-3.2,2.7c0,3.5,8.9,2.2,8.9,7.9
		C406.2,94.9,403.3,96.7,400.3,96.7z"/>
	<path fill="#FFFFFF" d="M414.2,96.7c-1.7,0-3.8-0.8-5.3-1.7v-1.9c1.4,0.8,3.6,1.8,5.2,1.8c1.8,0,3.4-1,3.4-2.9c0-3.8-8.8-2.1-8.8-8
		c0-3.1,2.7-4.8,5.6-4.8c1.7,0,3.1,0.5,4.5,1.3V82c-1.8-0.7-3.3-0.9-4.6-0.9c-1.7,0-3.2,0.9-3.2,2.7c0,3.5,8.9,2.2,8.9,7.9
		C420.1,94.9,417.2,96.7,414.2,96.7z"/>
</g>
</svg>
